<svg xmlns="http://www.w3.org/2000/svg" version="1.1" xmlns:xlink="http://www.w3.org/1999/xlink" xmlns:svgjs="http://svgjs.com/svgjs" width="1000" height="1000"><rect width="1000" height="1000" rx="300" ry="300" fill="#111119"></rect><g transform="matrix(17.77777777777778,0,0,17.77777777777778,100,100)"><svg xmlns="http://www.w3.org/2000/svg" version="1.1" xmlns:xlink="http://www.w3.org/1999/xlink" xmlns:svgjs="http://svgjs.com/svgjs" width="45" height="45"><svg id="a" xmlns="http://www.w3.org/2000/svg" xmlns:xlink="http://www.w3.org/1999/xlink" viewBox="0 0 45 45"><defs><linearGradient id="b" x1="375.32" y1="1026.46" x2="402.31" y2="1026.46" gradientTransform="translate(-364.31 -996.45)" gradientUnits="userSpaceOnUse"><stop offset="0" stop-color="#b000fd"></stop><stop offset=".98" stop-color="#30daff"></stop></linearGradient><linearGradient id="c" x1="369.31" y1="1014.95" x2="404.31" y2="1014.95" xlink:href="#b"></linearGradient></defs><rect width="45" height="45" rx="6.84" ry="6.84" style="fill:#111119; stroke-width:0px;"></rect><path d="M11.01,17.51v17.92c0,.22.06.43.17.62s.27.35.45.46c1.78,1.03,6.98,4.05,9.84,5.7.24.14.61.37.78.28.96-.48,1.89-1.07,2.91-1.66-.27-.19-.41-.29-.56-.38-3.47-2.03-6.93-4.06-10.39-6.09v-3.62l2.77,1.61c3.55,2.06,7.09,4.12,10.64,6.18.26.15.65.4.84.3,1.04-.51,2.03-1.12,3.17-1.77l-17.43-10.21v-3.58c1.51.87,3.01,1.75,4.52,2.63,5.18,3.01,10.36,6.02,15.54,9.03.16.09.33.14.51.14s.36-.05.51-.14c.9-.54,1.81-1.07,2.72-1.6l-3.65-2.15-23.34-13.67Z" style="fill:url(#b); stroke-width:0px;"></path><path d="M39.41,12.18c-2.3-1.31-4.59-2.64-6.88-3.97l-3.6-2.09-3.16,1.82c3.48,2,6.96,4,10.44,6,.2.09.37.23.49.42.11.19.17.41.15.62v2.71l-.03-.02c-1.74-.98-7.11-3.91-8.84-4.92-1.73-1-3.51-2.04-5.27-3.05l-3.35,1.93c4.63,2.66,12.62,7.09,17.5,9.89,0,1.19,0,2.39.01,3.57-.06-.04-.12-.08-.18-.11-6.64-3.83-16.93-9.6-23.56-13.45l3.03-1.75,3.36-1.94,3.04-1.76,3.16-1.83-2.64-1.53c-.22-.12-.56-.3-.72-.21-.52.26-1.02.55-1.54.84l-11.27,6.53-.14.07-.51.3-3.34,1.92c-.18.08-.33.22-.43.39-.1.17-.14.37-.13.57.02,6.3.02,12.6,0,18.89-.02.21.03.42.14.6.11.18.27.32.46.41.87.48,1.73.98,2.59,1.48v-4.17c-.02-.11-.02-.21-.02-.32.03-5.21.03-10.42.03-15.63l1.55-.89c5.79,3.34,13.41,7.63,20.21,11.48l.05.03c2.06,1.17,4.04,2.29,5.87,3.34l4.05,2.3c0-5.82.02-11.63.05-17.45.02-.21-.03-.42-.14-.6s-.27-.33-.46-.41h.02Z" style="fill:url(#c); stroke-width:0px;"></path></svg></svg></g></svg>